<?xml version="1.0" encoding="UTF-8"?>
<svg xmlns="http://www.w3.org/2000/svg" width="36" height="36" viewBox="0 0 36 36" fill="none">
  <path d="M36.0001 18.3998C36.0001 16.9198 35.8775 15.8398 35.6123 14.7198H18.3674V21.3998H28.4898C28.2858 23.0599 27.1838 25.5598 24.7347 27.2397L24.7004 27.4634L30.1529 31.603L30.5307 31.6399C34 28.4998 36.0001 23.8798 36.0001 18.3998Z" fill="#4285F4"></path>
  <path d="M18.3662 36C23.3253 36 27.4885 34.3999 30.5295 31.6399L24.7335 27.2398C23.1825 28.2998 21.1008 29.0398 18.3662 29.0398C13.5091 29.0398 9.3867 25.8999 7.91712 21.5598L7.70172 21.5777L2.03215 25.8778L1.95801 26.0798C4.97838 31.9598 11.1825 36 18.3662 36Z" fill="#34A853"></path>
  <path d="M7.91831 21.56C7.53054 20.44 7.30614 19.2399 7.30614 17.9999C7.30614 16.7599 7.53054 15.5599 7.89791 14.4399L7.88762 14.2014L2.14696 9.83228L1.95913 9.91988C0.714294 12.3599 0 15.0999 0 17.9999C0 20.9 0.714294 23.6399 1.95913 26.0799L7.91831 21.56Z" fill="#FBBC05"></path>
  <path d="M18.3663 6.95993C21.8152 6.95993 24.1418 8.42 25.4683 9.64006L30.652 4.68001C27.4684 1.78002 23.3254 0 18.3663 0C11.1825 0 4.9784 4.03998 1.95801 9.91991L7.89681 14.44C9.3867 10.1 13.5091 6.95993 18.3663 6.95993Z" fill="#EB4335"></path>
</svg>
