<svg width="311" height="152" viewBox="0 0 311 152" fill="none" xmlns="http://www.w3.org/2000/svg">
<path d="M0 12.4684C0 5.58231 5.58231 0 12.4684 0H297.684C304.57 0 310.152 5.58231 310.152 12.4684V139.491C310.152 146.377 304.57 151.959 297.684 151.959H12.4684C5.58231 151.959 0 146.377 0 139.491V12.4684Z" fill="#313131"/>
<rect x="102" y="32" width="89" height="88" fill="white"/>
<path d="M133.995 92.2254L145.549 60.8173H154.614L166.879 94.1663V60.8173H191.053V32.2324H102V70.3456C104.287 63.5434 110.017 59.6145 118.175 59.5821C125.958 59.6115 131.702 63.3111 132.751 70.8749H123.686C123.01 68.4723 120.699 67.3753 117.998 67.3459C113.72 67.3753 110.615 71.3425 110.532 77.4036C110.615 83.5411 113.178 88.2111 118.531 88.167C120.747 88.2111 124.865 86.1143 124.752 80.7532H118.353V75.2832H133.995V92.2254Z" fill="#ED1B24"/>
<path fill-rule="evenodd" clip-rule="evenodd" d="M203.829 46.6837C207.864 46.6837 211.143 43.4433 211.143 39.4591C211.143 35.4728 207.864 32.2324 203.829 32.2324C199.794 32.2324 196.516 35.4728 196.516 39.4591C196.516 43.4433 199.794 46.6837 203.829 46.6837ZM203.829 45.4375C200.299 45.4375 197.525 42.9464 197.525 39.4581C197.525 35.9697 200.299 33.4764 203.829 33.4764C207.362 33.4764 209.882 35.9697 209.882 39.4581C209.882 42.9464 207.362 45.4375 203.829 45.4375ZM202.064 39.7081H203.829L206.352 43.4433H207.361L205.091 39.7081C206.352 39.7081 207.611 39.209 207.611 37.466C207.611 35.9708 206.855 35.2216 204.585 35.2216H201.053V43.4422H202.062V39.7081H202.064V39.7081ZM202.064 38.7099V36.2187H204.334C205.343 36.2187 206.352 36.2188 206.352 37.4671C206.352 38.96 204.838 38.711 203.577 38.711H202.064V38.7099V38.7099Z" fill="#ED1B24"/>
<path d="M129.018 95.0491L127.063 91.5201C125.285 93.6227 122.154 95.6078 117.109 95.5784C110.559 95.6078 104.489 91.773 102.178 84.4621L102 121.164H191.056V68.5815H176.125V74.2279H187.323V80.7566H176.125V95.0491H158.35L156.217 89.2262H143.952L141.819 95.0491H129.018Z" fill="#ED1B24"/>
<path d="M146.258 83.2265H153.904L150.168 72.2866L146.258 83.2265Z" fill="#ED1B24"/>
</svg>
